<svg width="700" height="250" viewBox="0 0 700 250" fill="none" xmlns="http://www.w3.org/2000/svg">
<g clip-path="url(#clip0_71_54)">
<path d="M20 80C20 46.8629 46.8629 20 80 20H657C669.703 20 680 30.2975 680 43V191C680 212.539 662.539 230 641 230H59C37.4609 230 20 212.539 20 191V80Z" fill="#0A7F8B" fill-opacity="0.72"/>
<path d="M25 64C25 42.4609 42.4609 25 64 25H646C667.539 25 685 42.4609 685 64V196C685 217.539 667.539 235 646 235H94C55.8924 235 25 204.108 25 166V64Z" fill="#0A7F8B" fill-opacity="0.72"/>
<path d="M25.5 70C25.5 41.0051 49.0051 17.5 78 17.5H587C640.848 17.5 684.5 61.1522 684.5 115V171C684.5 201.652 659.652 226.5 629 226.5H123C69.1522 226.5 25.5 182.848 25.5 129V70Z" stroke="#D9D9D9" stroke-opacity="0.38"/>
<rect x="56" y="43" width="164" height="164" rx="82" fill="#D9D9D9"/>
<rect x="481" y="43" width="164" height="164" rx="82" fill="#D9D9D9"/>
</g>
<defs>
<clipPath id="clip0_71_54">
<rect width="700" height="250" fill="white"/>
</clipPath>
</defs>
</svg>
