<svg width="700" height="250" viewBox="0 0 700 250" fill="none" xmlns="http://www.w3.org/2000/svg"><path d="M128 158L61.5 198L576 198.5V46L512 83.5L448.5 121H384L320.5 83L255.5 121H192L128 158Z" fill="#1798A7" fill-opacity="0.5"/><path d="M61.5 198L128 158L192 121H255.5L320.5 83L384 121H448.5L512 83.5L576 46" stroke="#1798A7" stroke-width="5" stroke-linecap="round"/><rect x="59" y="59" width="5" height="142" rx="2.5" fill="#D9D9D9"/><rect x="59" y="196" width="519" height="5" rx="2.5" fill="#D9D9D9"/><rect x="55" y="156" width="13" height="5" rx="2.5" fill="#D9D9D9"/><rect x="55" y="196" width="13" height="5" rx="2.5" fill="#D9D9D9"/><rect x="55" y="118" width="13" height="5" rx="2.5" fill="#D9D9D9"/><rect x="55" y="80" width="13" height="5" rx="2.5" fill="#D9D9D9"/><rect x="125" y="205" width="13" height="5" rx="2.5" transform="rotate(-90 125 205)" fill="#D9D9D9"/><rect x="59" y="205" width="13" height="5" rx="2.5" transform="rotate(-90 59 205)" fill="#D9D9D9"/><rect x="189" y="205" width="13" height="5" rx="2.5" transform="rotate(-90 189 205)" fill="#D9D9D9"/><rect x="253" y="205" width="13" height="5" rx="2.5" transform="rotate(-90 253 205)" fill="#D9D9D9"/><rect x="317" y="205" width="13" height="5" rx="2.5" transform="rotate(-90 317 205)" fill="#D9D9D9"/><rect x="381" y="205" width="13" height="5" rx="2.5" transform="rotate(-90 381 205)" fill="#D9D9D9"/><rect x="445" y="205" width="13" height="5" rx="2.5" transform="rotate(-90 445 205)" fill="#D9D9D9"/><rect x="509" y="205" width="13" height="5" rx="2.5" transform="rotate(-90 509 205)" fill="#D9D9D9"/><rect x="573" y="205" width="13" height="5" rx="2.5" transform="rotate(-90 573 205)" fill="#D9D9D9"/><path d="M584.284 37.9904C586.594 37.9904 588.037 40.4904 586.882 42.4904L579.088 55.9904C577.933 57.9904 575.047 57.9904 573.892 55.9904L566.098 42.4904C564.943 40.4904 566.386 37.9904 568.696 37.9904L584.284 37.9904Z" fill="#1798A7"/><rect x="599" y="21" width="47" height="47" rx="23.5" fill="#1798A7"/></svg>