<svg width="308" height="394" viewBox="0 0 308 394" fill="none" xmlns="http://www.w3.org/2000/svg"><path d="M18 187C18 153.863 44.8629 127 78 127H265C277.703 127 288 137.297 288 150V339C288 360.539 270.539 378 249 378H57C35.4609 378 18 360.539 18 339V187Z" fill="--color1--" fill-opacity="0.72"/><path d="M18 187C18 153.863 44.8629 127 78 127H265C277.703 127 288 137.297 288 150V193C288 214.539 270.539 232 249 232H57C35.4609 232 18 214.539 18 193V187Z" fill="--color1--" fill-opacity="0.72"/><path d="M20.5 224C20.5 170.152 64.1522 126.5 118 126.5H234C264.652 126.5 289.5 151.348 289.5 182V280C289.5 333.848 245.848 377.5 192 377.5H76C45.3482 377.5 20.5 352.652 20.5 322V224Z" stroke="--color2--" stroke-opacity="0.38"/><path d="M20 167.556C20 146.814 36.8142 130 57.5556 130H251C272.539 130 290 147.461 290 169V195C290 216.539 272.539 234 251 234H86.4444C49.7482 234 20 204.252 20 167.556Z" fill="--color1--" fill-opacity="0.72"/><path d="M20.5 162.503C20.5 142.619 36.6192 126.5 56.5033 126.5H223.818C260.093 126.5 289.5 155.907 289.5 192.182C289.5 212.792 272.792 229.5 252.182 229.5H87.4967C50.4954 229.5 20.5 199.505 20.5 162.503Z" stroke="--color2--" stroke-opacity="0.38"/><rect x="71" y="16" width="164" height="164" rx="82" fill="--color2--"/></svg>